<svg width="143" height="80" viewBox="0 0 143 80" fill="none" xmlns="http://www.w3.org/2000/svg">
<path d="M22.6027 19.2889L11.2322 44.7556H13.8423L17.16 37.2741H27.75L30.9189 44.7556H35.8081L24.0238 19.2889H22.6027ZM18.0186 35.3371L22.5774 25.0541L22.3639 24.5504L26.9316 35.3371H18.0186ZM55.0343 19.3052L41.8453 31.5889L41.8259 19.3052H38.1102L38.0923 44.7556H41.8468V32.04L52.5313 44.7556H57.8014L45.6816 30.9097L58.227 19.3052H55.0343ZM70.7471 19.2889L59.3765 44.7556H61.9866L65.3043 37.2741H75.8959L79.0655 44.7556H83.9539L72.1697 19.2889H70.7471ZM66.163 35.3371L70.7218 25.0541L75.0759 35.3371H66.163ZM119.983 19.2889H118.562L107.191 44.7556H109.801L113.119 37.2741H123.711L126.88 44.7556H131.768L119.983 19.2889ZM113.978 35.3371L118.536 25.0541L122.891 35.3371H113.978ZM102.882 25.8519C102.9 24.4928 102.431 23.1719 101.56 22.126C100.676 21.0484 99.5372 20.2963 98.1444 19.8697C96.5432 19.3936 94.4847 19.1993 91.9688 19.2867L86.1823 19.3052V44.7556H89.878V32.8889H92.6258L101.509 44.7556H105.67L96.4026 32.3704C100.723 31.443 102.883 29.2689 102.882 25.8482M90.9613 31.0215H89.878V21.2437H92.916C94.593 21.2437 95.9477 21.6818 96.9799 22.5578C98.0122 23.4339 98.5283 24.5921 98.5283 26.0326C98.5283 27.7526 97.7285 29.0477 96.1288 29.9178C94.7865 30.6546 93.064 31.023 90.9613 31.023" fill="#E02826"/>
<path d="M89.2299 52.6526H88.0543V60.6133H93.1064V59.9022H89.2299V52.6526ZM114.266 52.6526L111.868 56.1748L109.165 52.6526H107.917L111.08 56.923V60.6133H112.243V56.8748L115.138 52.6526H114.266ZM52.3081 55.9859C51.7991 55.7607 51.4135 55.5156 51.1511 55.2504C51.0251 55.128 50.9253 54.9815 50.8577 54.8197C50.79 54.6579 50.7559 54.4841 50.7575 54.3089C50.7575 53.9632 50.8567 53.6859 51.0551 53.477C51.2535 53.2682 51.5181 53.1635 51.849 53.163C52.1219 53.1668 52.3913 53.2247 52.6414 53.3333C52.9088 53.4434 53.1564 53.5963 53.3743 53.7859L53.8951 53.0504C53.7175 52.8894 53.4531 52.7627 53.102 52.6704C52.7279 52.5751 52.343 52.5285 51.9569 52.5319C51.6278 52.528 51.3006 52.5809 50.9896 52.6882C50.7137 52.7841 50.4604 52.9353 50.2456 53.1326C50.0386 53.3277 49.8756 53.5643 49.7671 53.8267C49.6509 54.1117 49.5933 54.4169 49.5975 54.7245C49.5853 55.1904 49.7522 55.6434 50.064 55.9911C50.374 56.3368 50.8363 56.6422 51.4509 56.9074C52.0328 57.1652 52.473 57.4326 52.7716 57.7096C53.0702 57.9867 53.219 58.3022 53.218 58.6563C53.218 59.1007 53.097 59.4566 52.8549 59.7237C52.735 59.857 52.5869 59.9623 52.4214 60.0322C52.2559 60.1022 52.077 60.1349 51.8973 60.1282C51.5812 60.116 51.2696 60.0485 50.977 59.9289C50.6192 59.7951 50.2809 59.6145 49.971 59.3919L49.4145 60.1882C49.5548 60.2781 49.7044 60.3526 49.8609 60.4104C50.0545 60.4838 50.2535 60.5422 50.4561 60.5852C50.6858 60.6356 50.9184 60.6719 51.1526 60.6941C51.4006 60.7178 51.6486 60.7296 51.8966 60.7296C52.2379 60.7353 52.5774 60.6796 52.8988 60.5652C53.1872 60.4615 53.4496 60.297 53.6682 60.083C53.8818 59.8676 54.049 59.611 54.1593 59.3289C54.2788 59.0191 54.3384 58.6896 54.3348 58.3578C54.347 57.8518 54.165 57.3601 53.8259 56.983C53.4866 56.6052 52.9817 56.2716 52.311 55.9822M95.7515 60.6133H96.9152V52.6526H95.7485L95.7515 60.6133ZM34.5037 56.163H30.5171V52.6526H29.3423V60.6133H30.5171V56.8622H34.5037V60.6133H35.6667V52.6526H34.5037V56.163ZM45.7426 53.5556C45.3806 53.1895 44.945 52.9037 44.4643 52.717C43.3952 52.324 42.2202 52.324 41.1511 52.717C40.668 52.9026 40.2303 53.1884 39.8668 53.5556C39.5044 53.928 39.2239 54.3715 39.0432 54.8578C38.8432 55.3983 38.7445 55.9707 38.7523 56.5467C38.7442 57.1183 38.8428 57.6865 39.0432 58.2222C39.2229 58.7038 39.5037 59.1417 39.8668 59.5067C40.2327 59.8678 40.67 60.149 41.1511 60.3326C42.2199 60.7274 43.3955 60.7274 44.4643 60.3326C44.943 60.1479 45.3782 59.8667 45.7426 59.5067C46.1055 59.1415 46.3863 58.7037 46.5662 58.2222C46.7656 57.688 46.8642 57.1217 46.8572 56.5519C46.8645 55.9759 46.7659 55.4035 46.5662 54.863C46.3858 54.375 46.1053 53.9297 45.7426 53.5556ZM45.4279 58.2222C45.3187 58.5661 45.1436 58.8855 44.9122 59.163C44.6924 59.423 44.4171 59.631 44.1064 59.7719C43.7794 59.9195 43.4238 59.9936 43.0648 59.9889C42.6288 59.9945 42.1974 59.8997 41.8043 59.7119C41.4251 59.526 41.0941 59.2555 40.8371 58.9215C40.5566 58.5523 40.3454 58.1358 40.2136 57.6919C40.0592 57.1772 39.9839 56.6423 39.9904 56.1052C39.984 55.6809 40.0466 55.2585 40.1756 54.8541C40.2887 54.5029 40.4674 54.1762 40.7024 53.8911C40.9244 53.6249 41.2042 53.4123 41.5209 53.2696C41.8544 53.122 42.2161 53.0479 42.5811 53.0526C43.0095 53.0465 43.433 53.1428 43.8162 53.3333C44.1916 53.5256 44.5186 53.7995 44.7731 54.1348C45.0538 54.5078 45.2633 54.9288 45.3914 55.377C45.5419 55.903 45.6146 56.448 45.6072 56.9948C45.6133 57.4108 45.5528 57.8252 45.4279 58.2222ZM82.1191 52.5837H81.5372L78.2374 60.6163H79.122L80.1444 58.0237H83.1607L84.2151 60.6163H85.4264C84.8683 59.2652 84.313 57.9264 83.7604 56.6C83.2079 55.2736 82.6607 53.9348 82.1191 52.5837ZM80.4078 57.3356L81.6191 54.257L82.884 57.3333L80.4078 57.3356ZM99.5372 53.3674H102.505V60.6163H103.669V53.3645H106.637V52.6526H99.5372V53.3674ZM62.3244 53.2526C62.0762 53.0544 61.7924 52.9051 61.4881 52.8126C61.1331 52.7043 60.7634 52.6513 60.3921 52.6556H58.0685V60.6133H59.2441V57.14H60.0923C60.5019 57.1448 60.91 57.0899 61.3036 56.977C61.6426 56.881 61.9609 56.7235 62.2426 56.5126C62.4988 56.3196 62.7062 56.0698 62.8482 55.783C62.9917 55.4881 63.0643 55.164 63.0603 54.8363C63.0655 54.526 63.0001 54.2186 62.8691 53.937C62.7426 53.6712 62.5587 53.4364 62.3304 53.2496M61.404 56.0304C61.1372 56.304 60.7857 56.4405 60.3497 56.44H59.2441V53.3645H59.8438C59.9286 53.3645 60.0194 53.3645 60.1168 53.3526C60.6253 53.3526 61.033 53.4973 61.3401 53.7867C61.6471 54.0761 61.8004 54.462 61.7999 54.9445C61.7999 55.3953 61.6669 55.7573 61.4011 56.0304M66.1466 60.6133H67.3096V52.6526H66.1466V60.6133ZM69.8668 53.3645H72.8349V60.6133H73.9978V53.3645H76.9651V52.6526H69.8631L69.8668 53.3645Z" fill="#E02826"/>
</svg>
