<svg width="573" height="960" viewBox="0 0 573 960" fill="none" xmlns="http://www.w3.org/2000/svg">
<rect y="-124" width="572.691" height="1277.91" fill="#F8F8F8"/>
<mask id="mask0_125_13794" style="mask-type:alpha" maskUnits="userSpaceOnUse" x="0" y="-124" width="573" height="1278">
<rect y="-124" width="572.691" height="1277.91" fill="white"/>
</mask>
<g mask="url(#mask0_125_13794)">
<path opacity="0.025797" fill-rule="evenodd" clip-rule="evenodd" d="M288.78 807.464C293.402 802.833 300.906 802.833 305.529 807.464L446.666 948.863C451.276 953.482 451.276 960.962 446.666 965.581L305.529 1106.98C300.906 1111.61 293.402 1111.61 288.78 1106.98L147.643 965.581C143.032 960.962 143.032 953.482 147.643 948.863L288.78 807.464Z" fill="#FF6A6A"/>
<g opacity="0.0375744" filter="url(#filter0_f_125_13794)">
<path fill-rule="evenodd" clip-rule="evenodd" d="M544.934 272.166C549.557 267.535 557.061 267.535 561.683 272.166L642.377 353.01C646.988 357.629 646.988 365.109 642.377 369.728L561.683 450.572C557.061 455.203 549.557 455.203 544.934 450.572L464.24 369.728C459.63 365.109 459.63 357.629 464.24 353.01L544.934 272.166Z" fill="#F06767"/>
</g>
<path opacity="0.0659412" fill-rule="evenodd" clip-rule="evenodd" d="M289.399 436.409C294.022 431.778 301.526 431.778 306.149 436.409L594.423 725.219C599.033 729.838 599.033 737.318 594.423 741.937L306.149 1030.75C301.526 1035.38 294.022 1035.38 289.399 1030.75L1.12517 741.937C-3.48533 737.318 -3.48535 729.838 1.12518 725.219L289.399 436.409Z" fill="#F06767"/>
<path opacity="0.0895647" fill-rule="evenodd" clip-rule="evenodd" d="M152.476 195.833C158.88 189.428 158.871 179.035 152.454 172.618L-28.79 -8.62594C-35.2066 -15.0425 -45.6002 -15.0521 -52.0049 -8.64747L-232.913 172.261C-239.318 178.665 -239.308 189.059 -232.891 195.475L-51.6474 376.719C-45.2309 383.136 -34.8372 383.146 -28.4326 376.741L152.476 195.833ZM-40.3218 72.6149L71.213 184.15L-40.1151 295.478L-151.65 183.943L-40.3218 72.6149Z" fill="#F06767"/>
<rect width="357.34" height="14.199" rx="7.09948" transform="matrix(-1 0 0 1 680.958 504.895)" fill="#BABFC7"/>
<path d="M238.346 327.002C233.518 343.734 245.305 360.976 258.283 364.598C271.262 368.22 280.53 356.853 285.358 340.121C290.186 323.389 283.572 306.891 270.589 303.269C257.606 299.647 243.169 310.274 238.346 327.002Z" fill="#ECC4A6"/>
<path d="M308.897 650.435C308.897 650.435 276.312 700.974 271.909 703.173C267.506 705.371 256.507 705.915 260.631 714.144C264.755 722.372 266.407 754.795 270.243 756.446C274.079 758.096 307.098 761.931 302.146 756.446C297.193 750.96 294.15 753.703 291.65 743.811C289.151 733.919 285.645 715.241 290.318 711.396C294.992 707.552 323.617 672.971 323.617 672.971L308.897 650.435Z" fill="#ECC4A6"/>
<path d="M473.864 671.733C473.864 671.733 513.465 737.085 520.801 742.96C528.136 748.834 552.329 757.651 532.534 759.117C512.738 760.583 503.201 752.509 490.732 748.834C478.262 745.159 462.868 742.96 468.735 733.415C474.601 723.87 472.162 703.03 459.514 689.81C446.866 676.59 473.864 671.733 473.864 671.733Z" fill="#ECC4A6"/>
<path fill-rule="evenodd" clip-rule="evenodd" d="M271.307 520.327C271.307 520.327 369.448 517.76 408.358 549.706C431.118 584.228 486.176 686.083 490.455 697.29C487.519 700.228 470.998 705.54 463.659 704.793C441.999 678.961 413.374 656.622 401.99 636.359C387.957 611.384 383.632 598.899 360.877 596.694C338.121 594.49 286.723 587.147 271.307 587.147C255.891 587.147 271.307 520.327 271.307 520.327Z" fill="#222425"/>
<path fill-rule="evenodd" clip-rule="evenodd" d="M185.178 759.293H190.392L227.775 605.471H216.307L185.178 759.293Z" fill="#BABFC7"/>
<path fill-rule="evenodd" clip-rule="evenodd" d="M340.183 759.293H335.059L292.853 599.555H304.139L340.183 759.293Z" fill="#BABFC7"/>
<path fill-rule="evenodd" clip-rule="evenodd" d="M215.392 514.361L272.583 524.195C272.583 524.195 348.584 524.89 383.326 531.342C414.932 537.203 419.602 572.981 383.326 622.265C362.727 650.255 345.31 672.598 309.695 697.764C300.631 691.134 297.168 688.613 294.661 672.68C297.242 669.157 303.914 647.116 305.985 642.801C325.684 601.766 351.982 586.84 352.363 582.805C347.95 575.657 235.417 620.069 213.041 593.942C191.656 568.995 215.392 514.361 215.392 514.361Z" fill="#242526"/>
<path fill-rule="evenodd" clip-rule="evenodd" d="M214.024 384.852C229.072 382.746 244.401 385.603 258.734 395.956C271.264 408.7 285.437 429.717 284.569 464.385C283.464 508.407 291.396 511.237 283.124 523.344C248.627 537.539 189.625 598.645 203.522 533.157C213.579 485.741 181.453 450.391 207.371 397.793C209.482 393.511 212.115 389.363 214.024 384.852Z" fill="#F06767"/>
<path fill-rule="evenodd" clip-rule="evenodd" d="M284.572 480.771C285.244 503.764 288.503 510.54 286.013 517.747C271.9 519.183 246.091 524.812 239.642 533.804C232.277 544.094 224.912 545.562 228.332 537.97C231.752 530.377 240.871 519.587 226.854 482.583C212.838 445.579 206.2 420.586 219.95 394.854L284.572 480.771Z" fill="#EA5455"/>
<path d="M212.393 385.086C221.713 363.498 224.001 339.241 224.001 339.241L248.4 346.294C248.4 346.294 234.558 376.683 247.847 387.538C251.161 390.212 254.334 393.049 257.356 396.037C242.942 385.827 227.526 383.009 212.393 385.086Z" fill="#ECC4A6"/>
<path d="M223.991 343.705C225.434 342.448 227.218 340.88 229.14 339.241L249.032 344.988L249.073 345.092C248.612 346.169 243.541 357.705 242.864 368.822C236.935 365.308 230.449 359.583 223.042 349.579C223.424 347.358 223.742 345.376 223.991 343.705Z" fill="#E38540"/>
<path d="M230.175 392C255.244 400.747 252.464 427.186 275.539 466.12C287.48 486.28 298.555 485.98 298.555 485.98C319.241 485.875 339.902 484.566 360.436 482.063C381.647 479.471 382.991 485.783 368.261 491.058C338.506 501.698 307.633 513.156 282.734 510.394C257.836 507.632 215.261 444.101 213.065 427.564C210.027 404.707 217.549 387.585 230.175 392Z" fill="#F09959"/>
<path fill-rule="evenodd" clip-rule="evenodd" d="M243.098 612.571C244.649 612.571 246.232 612.571 247.861 612.511C268.175 612.005 281.999 609.183 293.11 606.917C306.083 604.269 313.245 602.807 321.546 606.802C324.74 608.334 328.565 606.975 330.09 603.768C331.615 600.56 330.263 596.717 327.07 595.185C314.879 589.337 304.679 591.42 290.561 594.302C279.94 596.467 266.729 599.166 247.546 599.644C226.074 600.182 212.982 596.982 206.36 589.59C200.448 583.003 198.718 571.938 200.919 554.763C201.67 548.888 202.425 544.001 203.089 539.685C204.96 527.521 206.196 519.458 204.663 507.046C203.244 495.507 199.437 480.135 190.628 450.332C189.974 448.128 188.199 446.442 185.972 445.909C183.745 445.376 181.404 446.076 179.831 447.747C178.258 449.418 177.691 451.806 178.345 454.01C194.76 509.546 193.904 514.957 190.422 537.722C189.749 542.112 188.985 547.086 188.212 553.126C185.498 574.305 188.244 588.629 196.847 598.214C205.692 608.075 220.061 612.571 243.098 612.571Z" fill="#BABFC7"/>
<path fill-rule="evenodd" clip-rule="evenodd" d="M471.719 727.345C498.232 740.003 512.505 747.256 521.001 746.566C523.009 746.404 524.695 746.201 526.08 745.989C535.537 751.443 550.626 757.894 533.648 759.12C513.668 760.562 504.05 752.62 491.468 749.005C478.885 745.39 463.352 743.226 469.272 733.837C470.472 731.83 471.301 729.633 471.719 727.345Z" fill="#242526"/>
<path fill-rule="evenodd" clip-rule="evenodd" d="M270.152 703.681C270.792 724.672 273.626 745.473 286.256 749.394C289.19 750.335 292.289 750.615 295.34 750.216C297.324 752.714 299.749 752.741 303.001 756.417C307.915 761.958 275.166 758.084 271.346 756.417C267.527 754.75 265.896 722.012 261.809 713.687C258.443 706.857 265.21 705.26 270.152 703.681Z" fill="#242526"/>
<path fill-rule="evenodd" clip-rule="evenodd" d="M370.318 507.262H454.62C457.137 507.261 459.424 505.8 460.485 503.516L494.553 430.156C495.56 428.053 495.359 425.572 494.028 423.659C492.697 421.746 490.441 420.697 488.121 420.912C485.801 421.128 483.777 422.574 482.82 424.699L450.493 494.314H370.318C366.745 494.314 363.848 497.213 363.848 500.788C363.848 504.363 366.745 507.262 370.318 507.262Z" fill="#F06767"/>
<path d="M353.917 481.96C370.961 481.712 387.862 471.621 396.259 473.095C404.657 474.57 432.078 493.462 428.628 494.197C425.178 494.932 403.427 483.742 402.664 483.573C401.901 483.403 397.231 491.322 385.619 494.229C374.008 497.137 385.541 485.589 349.552 496.383C326.172 503.407 353.917 481.96 353.917 481.96Z" fill="#ECC4A6"/>
<path fill-rule="evenodd" clip-rule="evenodd" d="M216.039 364.089L213.576 384.414C213.576 384.414 235.252 385.737 246.036 391.961C256.819 398.184 272.738 416.152 272.738 416.152L259.737 393.204L257.86 378.521L216.039 364.089Z" fill="#F06767"/>
<path fill-rule="evenodd" clip-rule="evenodd" d="M225.623 389.338C241.891 386.292 249.416 400.852 259.963 424.623C270.51 448.394 288.513 477.256 292.103 480.981C295.694 484.706 352.436 480.981 352.436 480.981C352.436 480.981 354.153 497.399 352.436 499.358C350.718 501.316 340.911 501.073 340.911 501.073C340.911 501.073 336.985 504.206 333.307 506.683C329.63 509.16 298.476 513.816 284.009 513.105C269.541 512.394 256.29 511.142 254.329 508.936C252.369 506.729 212.882 445.963 210.425 424.155C207.969 402.348 217.322 390.898 225.623 389.338Z" fill="#F06767"/>
<path d="M272.552 289.924C303.316 291.39 298.495 337.414 298.495 337.414C298.495 337.414 290.501 339.87 273.764 337.126C275.05 332.185 274.499 319.564 274.499 319.564C274.499 319.564 272.552 329.806 270.082 336.025C266.546 337.642 262.542 336.208 255.733 334.573C252.239 349.185 242.362 355.377 235.598 357.492C228.128 359.829 220.221 362.615 211.391 358.222C202.561 353.829 207.415 308.952 212.103 299.924C219.142 286.381 230.837 274.253 251.072 280.655C261.22 283.869 272.552 289.924 272.552 289.924Z" fill="#242526"/>
<path d="M219.492 344.874L207.023 363.097C207.023 363.097 220.839 397.652 180.662 413.311C149.194 425.575 152.903 447.178 167.119 468.891C181.335 490.604 158.61 509.628 158.61 509.628C158.61 509.628 155.147 485.56 124.571 481.014C82.8831 474.822 71.0788 418.787 102.214 390.769C127.984 367.584 135.82 386.787 153.263 365.981C170.705 345.175 203.629 359.225 203.629 359.225L215.697 341.607L219.492 344.874Z" fill="#242526"/>
<path d="M87.3127 446.916C87.5007 446.918 87.6858 446.871 87.8497 446.78C88.1122 446.642 88.3082 446.405 88.3944 446.123C88.4805 445.841 88.4497 445.537 88.3087 445.278C77.7525 426.114 86.3627 402.9 90.6999 396.609C91.1588 395.945 91.5949 395.267 92.0768 394.552C96.3405 387.952 101.646 379.74 129.955 374.683C136.775 373.468 142.296 369.448 148.139 365.192C160.21 356.403 173.896 346.439 203.623 360.012C203.992 360.219 204.448 360.201 204.799 359.966C205.151 359.731 205.338 359.319 205.284 358.902C205.229 358.485 204.941 358.134 204.541 357.996C173.616 343.885 159.37 354.254 146.799 363.404C141.167 367.5 135.848 371.374 129.542 372.507C100.269 377.733 94.6607 386.4 90.1767 393.359C89.7177 394.06 89.2954 394.725 88.8548 395.362C84.3065 401.949 75.2695 426.274 86.3443 446.343C86.5401 446.692 86.9096 446.911 87.3127 446.916Z" fill="#303C60"/>
<path d="M225.576 362.906C227.77 362.892 229.961 362.715 232.129 362.377C242.923 360.762 257.402 354.635 258.539 320.223C258.526 319.627 258.049 319.146 257.453 319.126C256.857 319.107 256.349 319.556 256.297 320.149C255.836 334.336 253.013 344.828 247.924 351.341C244.061 356.291 238.935 359.092 231.806 360.159C221.818 361.654 215.196 359.814 212.128 354.686C211.922 354.339 211.546 354.128 211.142 354.134C210.738 354.139 210.368 354.359 210.17 354.711C209.973 355.063 209.979 355.493 210.185 355.84C212.999 360.537 218.161 362.906 225.576 362.906Z" fill="#303C60"/>
<path fill-rule="evenodd" clip-rule="evenodd" d="M363.848 759.293H372.074L404.078 514.361H385.981L363.848 759.293Z" fill="#BABFC7"/>
</g>
<defs>
<filter id="filter0_f_125_13794" x="451.133" y="259.043" width="204.351" height="204.651" filterUnits="userSpaceOnUse" color-interpolation-filters="sRGB">
<feFlood flood-opacity="0" result="BackgroundImageFix"/>
<feBlend mode="normal" in="SourceGraphic" in2="BackgroundImageFix" result="shape"/>
<feGaussianBlur stdDeviation="4.82459" result="effect1_foregroundBlur_125_13794"/>
</filter>
</defs>
</svg>
